<svg width="28" height="30" viewBox="0 0 28 30" fill="none" xmlns="http://www.w3.org/2000/svg">
<path d="M1.5 5.94118H26.5M10.875 22.4118V12.5294M17.125 22.4118V12.5294M20.25 29H7.75C6.02411 29 4.625 27.5252 4.625 25.7059V7.58823C4.625 6.67859 5.32455 5.94118 6.1875 5.94118H21.8125C22.6754 5.94118 23.375 6.67859 23.375 7.58824V25.7059C23.375 27.5252 21.9759 29 20.25 29ZM10.875 5.94118H17.125C17.9879 5.94118 18.6875 5.20376 18.6875 4.29412V2.64706C18.6875 1.73741 17.9879 1 17.125 1H10.875C10.0121 1 9.3125 1.73741 9.3125 2.64706V4.29412C9.3125 5.20376 10.0121 5.94118 10.875 5.94118Z" stroke="#242424" stroke-width="2" stroke-linecap="round" stroke-linejoin="round"/>
</svg>
